<svg width="541" height="336" viewBox="0 0 541 336" fill="none" xmlns="http://www.w3.org/2000/svg">
<path fill-rule="evenodd" clip-rule="evenodd" d="M0 200.625V336H540.348L472.108 56.1558C462.629 17.2872 423.632 -6.71074 384.662 2.34488L87.0179 71.5111C66.3678 76.3098 48.8238 89.8486 38.9471 108.608L8.40584 166.616C2.88501 177.102 0 188.774 0 200.625Z" fill="#C48E5F"/>
<path d="M32 242.028C32 230.176 34.8858 218.502 40.4079 208.015L61.1043 168.712C70.9818 149.954 88.5258 136.416 109.175 131.618L335.117 79.122C373.842 70.1245 412.647 93.7696 422.405 132.31L446.98 229.366C458.659 275.492 423.795 320.284 376.213 320.284H105C64.6832 320.284 32 287.601 32 247.284L32 242.028Z" fill="#B94942"/>
</svg>
