<svg width="275" height="243" viewBox="0 0 275 243" fill="none" xmlns="http://www.w3.org/2000/svg">
<path fill-rule="evenodd" clip-rule="evenodd" d="M0 182.748V243H274.178L248.147 40.9808C244.222 10.5205 212.12 -7.61208 184.007 4.75137L48.7379 64.2381C36.1073 69.7926 26.6371 80.7236 22.9388 94.0168L1.68311 170.419C0.566215 174.433 0 178.581 0 182.748Z" fill="#E0A245"/>
<path d="M32 171.039C32 165.738 32.8262 160.47 34.449 155.425L46.0084 119.481C50.7521 104.731 61.9438 92.9372 76.4254 87.428L152.705 58.4089C183.032 46.8713 216.281 66.2151 221.24 98.2821L233.908 180.206C238.687 211.112 214.78 239 183.507 239H83C54.8335 239 32 216.167 32 188L32 171.039Z" fill="#BC4444"/>
</svg>
