<svg width="86" height="58" viewBox="0 0 86 58" fill="none" xmlns="http://www.w3.org/2000/svg">
<path d="M29.5 0.25C13.63 0.25 0.75 13.13 0.75 29C0.75 44.87 13.63 57.75 29.5 57.75C45.37 57.75 58.25 44.87 58.25 29C58.25 13.13 45.37 0.25 29.5 0.25ZM29.5 11.75C35.0487 11.75 39.5625 16.2638 39.5625 21.8125C39.5625 27.3612 35.0487 31.875 29.5 31.875C23.9513 31.875 19.4375 27.3612 19.4375 21.8125C19.4375 16.2638 23.9513 11.75 29.5 11.75ZM29.5 52C23.6638 52 16.7638 49.6425 11.8475 43.72C16.7063 39.925 22.83 37.625 29.5 37.625C36.17 37.625 42.2937 39.925 47.1525 43.72C42.2362 49.6425 35.3362 52 29.5 52Z" fill="white"/>
<path d="M70 55L54 29C63.36 36.4667 76.64 36.4667 86 29L70 55Z" fill="white"/>
</svg>
